<svg width="89" height="40" viewBox="0 0 89 40" fill="none" xmlns="http://www.w3.org/2000/svg">
<path d="M7.53737 29.3592C6.13585 28.6927 4.94444 28.1489 4.94444 27.0567C4.94444 26.2476 5.61056 25.6391 6.94279 25.6391C7.4189 25.6391 7.82349 25.6837 8.22807 25.7796C8.44266 25.7996 8.65501 25.8264 8.8696 25.8264C9.98948 25.8264 10.6534 25.1622 11.0825 23.856L11.2703 23.3144C11.0825 23.2653 9.20266 22.434 6.75279 22.434C2.85222 22.434 0.809172 24.9259 0.809172 27.5114C0.809172 28.8153 1.21152 29.7648 1.85528 30.5004C2.68681 31.4477 3.85139 32.0896 4.94444 32.6067C6.56279 33.3913 8.01349 33.9864 8.01349 35.1454C8.01349 36.1908 6.94279 36.7815 5.51891 36.7815C3.54516 36.7815 1.83293 35.6425 1.61611 35.5243L0 38.5133C0.283881 38.6783 2.37834 40.0067 5.78044 40.0067C9.41948 40.0067 12.151 37.9204 12.151 34.7197C12.151 31.519 9.60948 30.3555 7.53737 29.3614V29.3592Z" fill="#E31937"/>
<path d="M21.7582 30.8459L28.3456 22.7861H23.6605L18.3807 29.7359H18.3316V22.7861H14.46V39.8373H14.6724C16.36 39.8373 18.3338 39.0772 18.3338 36.3022V32.3638H18.4299L23.8035 39.6456H28.7033L21.7582 30.8459Z" fill="#E31937"/>
<path d="M28.5848 4.48234C27.2056 4.74535 25.1849 5.97793 25.1849 8.18232C25.2095 10.1482 26.8256 11.3585 26.8256 13.9441C26.8256 15.8899 25.7572 17.2183 24.5903 17.9293C25.0665 17.9071 25.5895 17.8848 26.1595 17.8848C27.3487 17.8848 28.064 17.9784 28.1109 17.9784L34.2222 10.5093C32.5345 7.97281 30.5362 6.00468 28.587 4.48456L28.5848 4.48234Z" fill="#E31937"/>
<path d="M33.7192 24.7075C34.4815 23.4994 34.5753 21.6004 34.6446 19.6567C34.7162 17.8536 35.0984 16.4783 37.5237 16.4783C38.0467 16.4783 38.5698 16.5519 39.4952 16.5519C43.0426 16.5519 45.3695 15.3193 46.8225 14.5147C43.8741 12.6401 39.569 10.7166 34.2199 10.5048C33.8869 11.4767 31.1509 18.9948 30.9587 19.5854C31.0056 19.6322 31.4594 20.1538 32.0517 21.1969C32.9324 22.6212 33.4108 23.8315 33.717 24.7075H33.7192Z" fill="#E31937"/>
<path d="M20.8082 18.569C20.4953 18.569 20.3321 18.3573 20.283 17.9962C20.2382 17.6663 18.716 3.69999 18.5014 1.58698C18.4567 1.28162 18.383 0.711022 18.383 0.521565C18.383 0.189457 18.5975 0 18.8591 0C19.5721 0 23.5174 0.922768 27.7063 3.86493C26.5172 4.21932 24.3042 5.45414 24.331 8.05973C24.331 10.3377 25.9896 11.6171 25.9896 13.9173C26.0164 17.6619 21.6867 18.5668 20.8105 18.5668L20.8082 18.569Z" fill="#F58025"/>
<path d="M34.0545 25.6815C34.1261 25.8709 34.1953 26.0136 34.2423 26.1072C34.3362 26.2944 34.4815 26.3457 34.6245 26.3457C34.7184 26.3457 34.8369 26.3234 34.9799 26.2476C35.2884 26.1094 48.0608 20.1828 50.0055 19.3046C50.2693 19.1619 50.8191 18.9257 50.9823 18.8321C51.1477 18.734 51.2461 18.5713 51.2461 18.4264C51.2461 18.335 51.2215 18.2369 51.1723 18.1946C50.9354 17.7867 49.697 16.4828 47.6316 15.063C45.9887 15.9412 43.4204 17.3409 39.6159 17.361C38.6659 17.361 38.4737 17.2896 37.8321 17.3164C35.9791 17.3164 35.5052 18.0987 35.4315 19.7325C35.4315 20.0423 35.4315 20.4458 35.4046 20.8938C35.3353 22.3404 35.1677 24.3575 34.0523 25.6859L34.0545 25.6815Z" fill="#F58025"/>
<path d="M58.8974 39.6478C58.8952 39.6278 58.7164 37.5794 58.7164 32.8965C58.7164 28.2135 58.8952 26.1785 58.8974 26.1585H55.8083C55.8083 26.1763 55.9893 28.2158 55.9893 32.8965C55.9893 37.5772 55.8105 39.6278 55.8083 39.6478H58.8974Z" fill="#81503B"/>
<path d="M53.3651 26.1607C52.3883 29.3681 50.922 33.3244 49.469 36.6633C48.0139 33.3177 46.5453 29.3614 45.5729 26.1607H42.2312C44.2832 30.5383 46.0178 34.9025 47.6696 39.6478H49.9295L49.9608 39.5609C51.9256 33.9998 53.0544 31.2203 55.3724 26.1607H53.3651Z" fill="#81503B"/>
<path d="M70.1543 38.2592H63.9559C63.9112 37.2362 63.8598 35.5154 63.8598 32.8987C63.8598 30.282 63.9112 28.5724 63.9559 27.5493H70.1543V26.1607H60.9539C60.9539 26.1808 61.135 28.218 61.135 32.8987C61.135 37.5794 60.9562 39.63 60.9539 39.6501H70.1543V38.2592Z" fill="#81503B"/>
<path d="M69.7721 32.0695H63.7055L64.8746 33.5406H69.7721V32.0695Z" fill="#81503B"/>
<path d="M86.9949 26.1607C86.0204 29.3659 84.554 33.3222 83.0989 36.6633C82.4059 35.0763 81.6951 33.3155 81.029 31.5279C81.6437 30.0591 82.4126 28.3205 83.3984 26.1607H81.3956C81.3956 26.1607 80.497 28.8822 80.298 29.4818C80.1013 28.8822 79.2005 26.1629 79.2005 26.1629H76.1941C77.4212 28.8399 78.3198 30.8971 79.0843 32.7939C78.5702 34.1224 78.0248 35.4463 77.495 36.6656C75.9281 33.3913 74.417 29.6311 73.1586 26.1607H70.5924C72.9082 31.2248 74.0705 34.0912 76.0354 39.6478H77.9555C77.9555 39.6478 79.585 35.2056 79.7973 34.6239C80.0097 35.2056 81.637 39.6456 81.637 39.6456H83.5593C85.5241 34.0889 86.6865 31.2248 89 26.1607H86.9949Z" fill="#81503B"/>
</svg>
